<mxfile host="app.diagrams.net" agent="Mozilla/5.0 (Windows NT 10.0; Win64; x64) AppleWebKit/537.36 (KHTML, like Gecko) Chrome/130.0.0.0 Safari/537.36" version="24.8.3" pages="2">
  <diagram id="topZgv-vGYoa-694PmaE" name="Halaman-1">
    <mxGraphModel dx="880" dy="460" grid="1" gridSize="10" guides="1" tooltips="1" connect="1" arrows="1" fold="1" page="1" pageScale="1" pageWidth="827" pageHeight="1169" math="0" shadow="0">
      <root>
        <mxCell id="0" />
        <mxCell id="1" parent="0" />
        <mxCell id="X4h4OxhpJaM6hhfQ-Rf4-1" value="Mulai" style="rounded=1;arcSize=40;strokeWidth=2" vertex="1" parent="1">
          <mxGeometry x="292" y="20" width="69" height="49" as="geometry" />
        </mxCell>
        <mxCell id="X4h4OxhpJaM6hhfQ-Rf4-2" value="Inisialisasi Serial pada 9600 bps" style="rounded=1;arcSize=40;strokeWidth=2" vertex="1" parent="1">
          <mxGeometry x="213" y="119" width="226" height="67" as="geometry" />
        </mxCell>
        <mxCell id="X4h4OxhpJaM6hhfQ-Rf4-3" value="Inisialisasi Sensor DHT" style="rounded=1;arcSize=40;strokeWidth=2" vertex="1" parent="1">
          <mxGeometry x="232" y="236" width="189" height="49" as="geometry" />
        </mxCell>
        <mxCell id="X4h4OxhpJaM6hhfQ-Rf4-4" value="Loop" style="rounded=1;arcSize=40;strokeWidth=2" vertex="1" parent="1">
          <mxGeometry x="294" y="335" width="64" height="49" as="geometry" />
        </mxCell>
        <mxCell id="X4h4OxhpJaM6hhfQ-Rf4-5" value="Baca Kelembaban dan Suhu" style="rounded=1;arcSize=40;strokeWidth=2" vertex="1" parent="1">
          <mxGeometry x="20" y="434" width="226" height="49" as="geometry" />
        </mxCell>
        <mxCell id="X4h4OxhpJaM6hhfQ-Rf4-6" value="Apakah pembacaan berhasil?" style="rhombus;strokeWidth=2;whiteSpace=wrap;" vertex="1" parent="1">
          <mxGeometry x="30" y="533" width="206" height="206" as="geometry" />
        </mxCell>
        <mxCell id="X4h4OxhpJaM6hhfQ-Rf4-7" value="Menampilkan pesan Failed to read from DHT sensor" style="rounded=1;arcSize=40;strokeWidth=2" vertex="1" parent="1">
          <mxGeometry x="97" y="812" width="220" height="67" as="geometry" />
        </mxCell>
        <mxCell id="X4h4OxhpJaM6hhfQ-Rf4-8" value="Menampilkan Kelembaban ke Serial Monitor" style="rounded=1;arcSize=40;strokeWidth=2" vertex="1" parent="1">
          <mxGeometry x="367" y="812" width="218" height="67" as="geometry" />
        </mxCell>
        <mxCell id="X4h4OxhpJaM6hhfQ-Rf4-9" value="Menampilkan Suhu ke Serial Monitor" style="rounded=1;arcSize=40;strokeWidth=2" vertex="1" parent="1">
          <mxGeometry x="360" y="929" width="231" height="67" as="geometry" />
        </mxCell>
        <mxCell id="X4h4OxhpJaM6hhfQ-Rf4-10" value="Tunda 2 detik" style="rounded=1;arcSize=40;strokeWidth=2" vertex="1" parent="1">
          <mxGeometry x="487" y="1045" width="129" height="49" as="geometry" />
        </mxCell>
        <mxCell id="X4h4OxhpJaM6hhfQ-Rf4-11" value="" style="curved=1;startArrow=none;endArrow=block;exitX=0.49;exitY=1;entryX=0.5;entryY=0;rounded=0;" edge="1" parent="1" source="X4h4OxhpJaM6hhfQ-Rf4-1" target="X4h4OxhpJaM6hhfQ-Rf4-2">
          <mxGeometry relative="1" as="geometry">
            <Array as="points" />
          </mxGeometry>
        </mxCell>
        <mxCell id="X4h4OxhpJaM6hhfQ-Rf4-12" value="" style="curved=1;startArrow=none;endArrow=block;exitX=0.5;exitY=0.99;entryX=0.5;entryY=-0.01;rounded=0;" edge="1" parent="1" source="X4h4OxhpJaM6hhfQ-Rf4-2" target="X4h4OxhpJaM6hhfQ-Rf4-3">
          <mxGeometry relative="1" as="geometry">
            <Array as="points" />
          </mxGeometry>
        </mxCell>
        <mxCell id="X4h4OxhpJaM6hhfQ-Rf4-13" value="" style="curved=1;startArrow=none;endArrow=block;exitX=0.5;exitY=0.99;entryX=0.5;entryY=-0.01;rounded=0;" edge="1" parent="1" source="X4h4OxhpJaM6hhfQ-Rf4-3" target="X4h4OxhpJaM6hhfQ-Rf4-4">
          <mxGeometry relative="1" as="geometry">
            <Array as="points" />
          </mxGeometry>
        </mxCell>
        <mxCell id="X4h4OxhpJaM6hhfQ-Rf4-14" value="" style="curved=1;startArrow=none;endArrow=block;exitX=0;exitY=0.66;entryX=0.5;entryY=-0.01;rounded=0;" edge="1" parent="1" source="X4h4OxhpJaM6hhfQ-Rf4-4" target="X4h4OxhpJaM6hhfQ-Rf4-5">
          <mxGeometry relative="1" as="geometry">
            <Array as="points">
              <mxPoint x="133" y="409" />
            </Array>
          </mxGeometry>
        </mxCell>
        <mxCell id="X4h4OxhpJaM6hhfQ-Rf4-15" value="" style="curved=1;startArrow=none;endArrow=block;exitX=0.5;exitY=0.99;entryX=0.5;entryY=0;rounded=0;" edge="1" parent="1" source="X4h4OxhpJaM6hhfQ-Rf4-5" target="X4h4OxhpJaM6hhfQ-Rf4-6">
          <mxGeometry relative="1" as="geometry">
            <Array as="points" />
          </mxGeometry>
        </mxCell>
        <mxCell id="X4h4OxhpJaM6hhfQ-Rf4-16" value="Tidak" style="curved=1;startArrow=none;endArrow=block;exitX=0.5;exitY=1;entryX=0.34;entryY=0;rounded=0;" edge="1" parent="1" source="X4h4OxhpJaM6hhfQ-Rf4-6" target="X4h4OxhpJaM6hhfQ-Rf4-7">
          <mxGeometry relative="1" as="geometry">
            <Array as="points">
              <mxPoint x="133" y="775" />
            </Array>
          </mxGeometry>
        </mxCell>
        <mxCell id="X4h4OxhpJaM6hhfQ-Rf4-17" value="" style="curved=1;startArrow=none;endArrow=block;exitX=0.76;exitY=0;entryX=0.5;entryY=0.99;rounded=0;" edge="1" parent="1" source="X4h4OxhpJaM6hhfQ-Rf4-7" target="X4h4OxhpJaM6hhfQ-Rf4-4">
          <mxGeometry relative="1" as="geometry">
            <Array as="points">
              <mxPoint x="326" y="775" />
            </Array>
          </mxGeometry>
        </mxCell>
        <mxCell id="X4h4OxhpJaM6hhfQ-Rf4-18" value="Ya" style="curved=1;startArrow=none;endArrow=block;exitX=1;exitY=0.7;entryX=0.5;entryY=0;rounded=0;" edge="1" parent="1" source="X4h4OxhpJaM6hhfQ-Rf4-6" target="X4h4OxhpJaM6hhfQ-Rf4-8">
          <mxGeometry relative="1" as="geometry">
            <Array as="points">
              <mxPoint x="476" y="775" />
            </Array>
          </mxGeometry>
        </mxCell>
        <mxCell id="X4h4OxhpJaM6hhfQ-Rf4-19" value="" style="curved=1;startArrow=none;endArrow=block;exitX=0.5;exitY=0.99;entryX=0.5;entryY=-0.01;rounded=0;" edge="1" parent="1" source="X4h4OxhpJaM6hhfQ-Rf4-8" target="X4h4OxhpJaM6hhfQ-Rf4-9">
          <mxGeometry relative="1" as="geometry">
            <Array as="points" />
          </mxGeometry>
        </mxCell>
        <mxCell id="X4h4OxhpJaM6hhfQ-Rf4-20" value="" style="curved=1;startArrow=none;endArrow=block;exitX=0.5;exitY=0.99;entryX=0.21;entryY=0;rounded=0;" edge="1" parent="1" source="X4h4OxhpJaM6hhfQ-Rf4-9" target="X4h4OxhpJaM6hhfQ-Rf4-10">
          <mxGeometry relative="1" as="geometry">
            <Array as="points">
              <mxPoint x="476" y="1020" />
            </Array>
          </mxGeometry>
        </mxCell>
        <mxCell id="X4h4OxhpJaM6hhfQ-Rf4-21" value="" style="curved=1;startArrow=none;endArrow=block;exitX=0.78;exitY=0;entryX=1;entryY=0.6;rounded=0;" edge="1" parent="1" source="X4h4OxhpJaM6hhfQ-Rf4-10" target="X4h4OxhpJaM6hhfQ-Rf4-4">
          <mxGeometry relative="1" as="geometry">
            <Array as="points">
              <mxPoint x="626" y="1020" />
              <mxPoint x="626" y="409" />
            </Array>
          </mxGeometry>
        </mxCell>
      </root>
    </mxGraphModel>
  </diagram>
  <diagram id="_2jl_e9XdycCuyhfQCQR" name="Halaman-2">
    <mxGraphModel dx="880" dy="460" grid="1" gridSize="10" guides="1" tooltips="1" connect="1" arrows="1" fold="1" page="1" pageScale="1" pageWidth="827" pageHeight="1169" math="0" shadow="0">
      <root>
        <mxCell id="0" />
        <mxCell id="1" parent="0" />
        <mxCell id="sIzm09QkwtiWCzUI-UvL-1" value="Mulai" style="rounded=1;arcSize=40;strokeWidth=2" vertex="1" parent="1">
          <mxGeometry x="240" y="20" width="69" height="49" as="geometry" />
        </mxCell>
        <mxCell id="sIzm09QkwtiWCzUI-UvL-2" value="Inisialisasi komunikasi Serial pada 9600 bps" style="rounded=1;arcSize=40;strokeWidth=2" vertex="1" parent="1">
          <mxGeometry x="181" y="119" width="187" height="67" as="geometry" />
        </mxCell>
        <mxCell id="sIzm09QkwtiWCzUI-UvL-3" value="Memulai komunikasi SPI" style="rounded=1;arcSize=40;strokeWidth=2" vertex="1" parent="1">
          <mxGeometry x="174" y="236" width="201" height="49" as="geometry" />
        </mxCell>
        <mxCell id="sIzm09QkwtiWCzUI-UvL-4" value="Menginisialisasi modul RFID" style="rounded=1;arcSize=40;strokeWidth=2" vertex="1" parent="1">
          <mxGeometry x="161" y="335" width="226" height="49" as="geometry" />
        </mxCell>
        <mxCell id="sIzm09QkwtiWCzUI-UvL-5" value="Menampilkan pesan Scan a card di Serial Monitor" style="rounded=1;arcSize=40;strokeWidth=2" vertex="1" parent="1">
          <mxGeometry x="163" y="434" width="222" height="67" as="geometry" />
        </mxCell>
        <mxCell id="sIzm09QkwtiWCzUI-UvL-6" value="Loop" style="rounded=1;arcSize=40;strokeWidth=2" vertex="1" parent="1">
          <mxGeometry x="242" y="550" width="64" height="49" as="geometry" />
        </mxCell>
        <mxCell id="sIzm09QkwtiWCzUI-UvL-7" value="Apakah ada kartu baru?" style="rhombus;strokeWidth=2;whiteSpace=wrap;" vertex="1" parent="1">
          <mxGeometry x="20" y="672" width="218" height="218" as="geometry" />
        </mxCell>
        <mxCell id="sIzm09QkwtiWCzUI-UvL-8" value="Apakah kartu dapat dibaca?" style="rhombus;strokeWidth=2;whiteSpace=wrap;" vertex="1" parent="1">
          <mxGeometry x="88" y="963" width="248" height="248" as="geometry" />
        </mxCell>
        <mxCell id="sIzm09QkwtiWCzUI-UvL-9" value="Menampilkan UID kartu di Serial Monitor" style="rounded=1;arcSize=40;strokeWidth=2" vertex="1" parent="1">
          <mxGeometry x="105" y="1285" width="215" height="67" as="geometry" />
        </mxCell>
        <mxCell id="sIzm09QkwtiWCzUI-UvL-10" value="Menghentikan komunikasi dengan kartu" style="rounded=1;arcSize=40;strokeWidth=2" vertex="1" parent="1">
          <mxGeometry x="185" y="1401" width="215" height="67" as="geometry" />
        </mxCell>
        <mxCell id="sIzm09QkwtiWCzUI-UvL-11" value="" style="curved=1;startArrow=none;endArrow=block;exitX=0.5;exitY=1;entryX=0.5;entryY=0;rounded=0;" edge="1" parent="1" source="sIzm09QkwtiWCzUI-UvL-1" target="sIzm09QkwtiWCzUI-UvL-2">
          <mxGeometry relative="1" as="geometry">
            <Array as="points" />
          </mxGeometry>
        </mxCell>
        <mxCell id="sIzm09QkwtiWCzUI-UvL-12" value="" style="curved=1;startArrow=none;endArrow=block;exitX=0.5;exitY=0.99;entryX=0.5;entryY=-0.01;rounded=0;" edge="1" parent="1" source="sIzm09QkwtiWCzUI-UvL-2" target="sIzm09QkwtiWCzUI-UvL-3">
          <mxGeometry relative="1" as="geometry">
            <Array as="points" />
          </mxGeometry>
        </mxCell>
        <mxCell id="sIzm09QkwtiWCzUI-UvL-13" value="" style="curved=1;startArrow=none;endArrow=block;exitX=0.5;exitY=0.99;entryX=0.5;entryY=-0.01;rounded=0;" edge="1" parent="1" source="sIzm09QkwtiWCzUI-UvL-3" target="sIzm09QkwtiWCzUI-UvL-4">
          <mxGeometry relative="1" as="geometry">
            <Array as="points" />
          </mxGeometry>
        </mxCell>
        <mxCell id="sIzm09QkwtiWCzUI-UvL-14" value="" style="curved=1;startArrow=none;endArrow=block;exitX=0.5;exitY=0.99;entryX=0.5;entryY=-0.01;rounded=0;" edge="1" parent="1" source="sIzm09QkwtiWCzUI-UvL-4" target="sIzm09QkwtiWCzUI-UvL-5">
          <mxGeometry relative="1" as="geometry">
            <Array as="points" />
          </mxGeometry>
        </mxCell>
        <mxCell id="sIzm09QkwtiWCzUI-UvL-15" value="" style="curved=1;startArrow=none;endArrow=block;exitX=0.5;exitY=0.99;entryX=0.51;entryY=0;rounded=0;" edge="1" parent="1" source="sIzm09QkwtiWCzUI-UvL-5" target="sIzm09QkwtiWCzUI-UvL-6">
          <mxGeometry relative="1" as="geometry">
            <Array as="points" />
          </mxGeometry>
        </mxCell>
        <mxCell id="sIzm09QkwtiWCzUI-UvL-16" value="" style="curved=1;startArrow=none;endArrow=block;exitX=0;exitY=0.74;entryX=0.43;entryY=0;rounded=0;" edge="1" parent="1" source="sIzm09QkwtiWCzUI-UvL-6" target="sIzm09QkwtiWCzUI-UvL-7">
          <mxGeometry relative="1" as="geometry">
            <Array as="points">
              <mxPoint x="108" y="636" />
            </Array>
          </mxGeometry>
        </mxCell>
        <mxCell id="sIzm09QkwtiWCzUI-UvL-17" value="Tidak" style="curved=1;startArrow=none;endArrow=block;exitX=0.71;exitY=0;entryX=0;entryY=0.99;rounded=0;" edge="1" parent="1" source="sIzm09QkwtiWCzUI-UvL-7" target="sIzm09QkwtiWCzUI-UvL-6">
          <mxGeometry relative="1" as="geometry">
            <Array as="points">
              <mxPoint x="191" y="636" />
            </Array>
          </mxGeometry>
        </mxCell>
        <mxCell id="sIzm09QkwtiWCzUI-UvL-18" value="Ya" style="curved=1;startArrow=none;endArrow=block;exitX=0.5;exitY=1;entryX=0.24;entryY=0;rounded=0;" edge="1" parent="1" source="sIzm09QkwtiWCzUI-UvL-7" target="sIzm09QkwtiWCzUI-UvL-8">
          <mxGeometry relative="1" as="geometry">
            <Array as="points">
              <mxPoint x="129" y="927" />
            </Array>
          </mxGeometry>
        </mxCell>
        <mxCell id="sIzm09QkwtiWCzUI-UvL-19" value="Tidak" style="curved=1;startArrow=none;endArrow=block;exitX=0.76;exitY=0;entryX=0.64;entryY=1;rounded=0;" edge="1" parent="1" source="sIzm09QkwtiWCzUI-UvL-8" target="sIzm09QkwtiWCzUI-UvL-6">
          <mxGeometry relative="1" as="geometry">
            <Array as="points">
              <mxPoint x="295" y="927" />
              <mxPoint x="295" y="636" />
            </Array>
          </mxGeometry>
        </mxCell>
        <mxCell id="sIzm09QkwtiWCzUI-UvL-20" value="Ya" style="curved=1;startArrow=none;endArrow=block;exitX=0.5;exitY=1;entryX=0.5;entryY=0;rounded=0;" edge="1" parent="1" source="sIzm09QkwtiWCzUI-UvL-8" target="sIzm09QkwtiWCzUI-UvL-9">
          <mxGeometry relative="1" as="geometry">
            <Array as="points" />
          </mxGeometry>
        </mxCell>
        <mxCell id="sIzm09QkwtiWCzUI-UvL-21" value="" style="curved=1;startArrow=none;endArrow=block;exitX=0.5;exitY=0.99;entryX=0.29;entryY=0.01;rounded=0;" edge="1" parent="1" source="sIzm09QkwtiWCzUI-UvL-9" target="sIzm09QkwtiWCzUI-UvL-10">
          <mxGeometry relative="1" as="geometry">
            <Array as="points">
              <mxPoint x="212" y="1376" />
            </Array>
          </mxGeometry>
        </mxCell>
        <mxCell id="sIzm09QkwtiWCzUI-UvL-22" value="" style="curved=1;startArrow=none;endArrow=block;exitX=0.77;exitY=0.01;entryX=1.01;entryY=0.83;rounded=0;" edge="1" parent="1" source="sIzm09QkwtiWCzUI-UvL-10" target="sIzm09QkwtiWCzUI-UvL-6">
          <mxGeometry relative="1" as="geometry">
            <Array as="points">
              <mxPoint x="396" y="1376" />
              <mxPoint x="396" y="636" />
            </Array>
          </mxGeometry>
        </mxCell>
      </root>
    </mxGraphModel>
  </diagram>
</mxfile>
